<?xml version="1.0" standalone="no"?>
<!DOCTYPE svg PUBLIC "-//W3C//DTD SVG 20010904//EN"
 "http://www.w3.org/TR/2001/REC-SVG-20010904/DTD/svg10.dtd">
<svg version="1.0" xmlns="http://www.w3.org/2000/svg"
 width="708.000000pt" height="220.000000pt" viewBox="0 0 708.000000 220.000000"
 preserveAspectRatio="xMidYMid meet">

<g transform="translate(0.000000,220.000000) scale(0.100000,-0.100000)"
fill="#000000" stroke="none">
<path d="M1140 2110 c-27 -27 -25 -66 5 -95 22 -22 32 -25 105 -25 l80 0 0
-49 0 -50 -47 -6 c-299 -38 -532 -174 -693 -402 l-44 -63 -66 0 c-52 0 -71 -4
-83 -18 -40 -44 -6 -102 60 -102 l32 0 -16 -45 -15 -45 -163 0 c-149 0 -164
-2 -189 -21 -34 -26 -34 -62 0 -88 24 -19 40 -21 177 -21 l150 0 -6 -36 c-4
-20 -15 -43 -27 -51 -27 -19 -25 -59 5 -95 14 -17 25 -42 25 -59 l0 -29 -159
0 c-154 0 -160 -1 -175 -22 -21 -30 -20 -54 4 -78 18 -18 33 -20 189 -20 l169
0 15 -44 c8 -25 13 -47 9 -50 -3 -3 -20 -6 -38 -6 -56 0 -83 -51 -50 -95 11
-16 29 -20 88 -23 l74 -4 30 -46 c16 -26 59 -79 97 -118 449 -473 1232 -354
1524 231 112 224 125 505 36 747 -14 38 -24 70 -22 72 2 1 17 12 33 25 l30 22
32 -36 c20 -21 42 -35 57 -35 28 0 57 28 57 55 0 27 -102 164 -127 171 -71 19
-94 -45 -41 -118 10 -14 8 -20 -13 -37 -13 -11 -29 -20 -36 -21 -7 0 -32 30
-56 68 -24 37 -65 92 -90 122 l-46 55 21 22 21 22 32 -24 c55 -42 108 -27 108
31 0 27 -80 107 -140 140 -29 17 -33 17 -57 1 -36 -24 -34 -61 4 -99 29 -29
30 -32 15 -54 -8 -13 -18 -24 -20 -24 -3 0 -30 20 -59 44 -126 102 -287 169
-471 195 l-120 17 1 44 1 45 81 5 c93 6 122 23 122 75 0 60 -15 65 -218 65
-169 0 -183 -1 -202 -20z m377 -26 c12 -12 14 -20 6 -33 -9 -14 -35 -16 -178
-19 -97 -1 -173 2 -178 7 -5 5 -7 21 -3 35 l6 26 166 0 c139 0 168 -3 181 -16z
m-188 -248 c11 -8 13 -8 7 1 -5 10 7 13 51 12 101 -1 269 -32 259 -47 -2 -4 9
-8 25 -9 38 -3 185 -78 181 -93 -1 -6 2 -9 7 -6 13 9 90 -49 154 -117 53 -56
62 -69 58 -90 -1 -5 2 -6 7 -3 13 8 54 -52 46 -66 -5 -7 -3 -8 6 -3 10 6 12 4
7 -8 -4 -10 -2 -16 6 -14 7 1 11 -6 11 -15 -1 -10 2 -16 6 -13 10 6 64 -121
84 -202 37 -141 30 -347 -15 -484 -35 -107 -79 -191 -96 -184 -13 4 -14 3 -3
-10 10 -12 9 -16 -4 -21 -9 -3 -13 -10 -10 -15 3 -5 1 -9 -5 -9 -5 0 -12 -8
-15 -18 -9 -29 -62 -83 -72 -74 -5 4 -6 3 -1 -2 9 -12 -43 -67 -56 -59 -6 3
-7 1 -4 -4 4 -6 -19 -30 -50 -53 -31 -24 -52 -37 -48 -29 5 8 -3 3 -16 -11
-40 -42 -289 -140 -323 -127 -7 3 -19 0 -25 -6 -17 -17 -232 -13 -326 7 -206
44 -425 186 -545 352 l-32 45 81 -2 c77 -2 82 -3 108 -33 36 -41 148 -136 160
-136 5 0 20 -10 33 -23 14 -12 26 -21 27 -19 7 6 24 1 20 -5 -3 -5 6 -9 19 -9
14 -1 31 -8 40 -15 8 -7 25 -13 37 -15 12 -1 58 -9 102 -19 117 -25 259 -15
373 26 48 16 95 31 104 32 9 1 15 3 13 6 -8 8 47 31 58 24 6 -3 7 -1 3 5 -4 7
-3 12 1 12 12 0 44 25 110 85 31 28 63 49 72 47 11 -2 12 0 4 5 -8 6 -3 19 16
45 16 21 31 35 35 33 3 -3 4 -2 1 1 -2 4 4 19 15 34 23 32 90 201 90 225 0 9
4 14 8 11 4 -2 7 68 6 157 -3 191 -5 217 -18 217 -5 0 -7 3 -3 6 3 3 -5 31
-19 62 -14 31 -22 62 -20 69 3 7 -4 17 -14 23 -11 6 -20 15 -20 21 0 11 -61
94 -107 146 -31 37 -191 163 -205 163 -5 0 -7 4 -4 9 4 5 -2 7 -12 4 -17 -4
-76 20 -68 28 3 2 -5 5 -17 5 -35 2 -148 29 -143 34 8 9 -109 8 -199 -1 -187
-19 -353 -100 -485 -233 l-54 -56 -76 0 c-52 0 -70 3 -60 10 8 5 11 10 6 10
-12 0 37 65 92 122 25 26 50 44 55 41 6 -3 7 -2 4 4 -8 13 105 95 190 137 151
75 329 114 372 82z m721 -56 c0 -5 4 -9 9 -7 4 1 31 -17 60 -41 53 -45 67 -82
31 -82 -26 0 -146 113 -136 128 9 15 36 16 36 2z m-495 -114 c85 -23 210 -87
280 -143 116 -94 213 -246 252 -393 21 -81 24 -272 4 -350 -62 -251 -254 -457
-496 -537 -116 -37 -288 -44 -406 -14 -110 27 -228 87 -309 156 -87 75 -92 85
-40 85 30 0 47 6 65 25 30 29 31 45 6 76 -17 22 -29 24 -115 27 l-95 4 -30 76
c-30 80 -55 188 -45 203 3 5 63 9 135 9 116 0 131 2 149 20 25 25 25 41 -1 74
-20 26 -22 26 -155 26 -74 0 -134 3 -134 8 1 52 58 237 83 270 6 8 38 12 95
12 74 0 89 3 109 22 27 25 29 45 7 76 -12 17 -25 22 -59 22 -24 0 -46 4 -49 9
-8 13 100 109 168 150 74 44 163 80 245 96 83 18 254 13 336 -9z m795 -209
c51 -68 58 -97 22 -97 -18 0 -100 113 -94 131 1 5 -3 9 -9 9 -8 0 -7 5 1 15 7
9 16 14 20 13 4 -2 31 -34 60 -71z m-1457 -78 c6 -9 7 -24 4 -33 -6 -14 -33
-16 -240 -16 -192 0 -237 3 -246 14 -9 11 -10 20 -1 36 11 20 17 20 242 18
200 -3 232 -5 241 -19z m-240 -109 c-3 -11 -9 -18 -13 -15 -5 3 -6 -3 -4 -12
7 -30 -10 -47 -34 -34 -11 6 -39 11 -61 11 -23 0 -41 2 -41 4 0 1 5 17 11 35
11 31 12 31 79 31 63 0 68 -1 63 -20z m-58 -125 l0 -30 -240 0 c-223 0 -240 1
-243 18 -9 47 -8 48 245 45 l238 -3 0 -30z m1 -81 c-3 -9 -6 -22 -6 -30 0 -11
-16 -14 -65 -14 -62 0 -65 1 -65 24 0 23 4 25 53 29 28 2 60 4 71 5 13 1 16
-3 12 -14z m249 -82 c53 -7 69 -28 45 -57 -19 -23 -452 -22 -474 1 -23 22 -17
45 14 57 21 8 354 7 415 -1z m-257 -134 l3 -28 -65 0 -66 0 0 30 0 31 63 -3
c59 -3 62 -4 65 -30z m6 -74 c18 -17 8 -47 -20 -58 -26 -10 -424 -7 -443 4
-26 14 -33 37 -15 55 23 23 455 22 478 -1z m52 -111 c11 -27 21 -52 22 -56 2
-4 -29 -7 -70 -5 -68 3 -73 5 -72 25 0 12 -4 21 -10 20 -5 -1 -12 6 -14 16 -3
13 3 17 30 17 18 0 44 7 58 14 36 20 36 20 56 -31z m244 -108 c6 -8 10 -22 8
-32 -3 -17 -20 -18 -242 -18 -212 0 -240 2 -249 17 -8 12 -7 21 2 32 19 23
462 24 481 1z"/>
<path d="M1285 2060 c-3 -5 -1 -10 4 -10 6 0 11 5 11 10 0 6 -2 10 -4 10 -3 0
-8 -4 -11 -10z"/>
<path d="M1425 1820 c-3 -5 -1 -10 4 -10 6 0 11 5 11 10 0 6 -2 10 -4 10 -3 0
-8 -4 -11 -10z"/>
<path d="M1515 1810 c-16 -7 -17 -9 -3 -9 9 -1 20 4 23 9 7 11 7 11 -20 0z"/>
<path d="M1586 1792 c-3 -5 1 -9 9 -9 8 0 12 4 9 9 -3 4 -7 8 -9 8 -2 0 -6 -4
-9 -8z"/>
<path d="M1675 1771 c-3 -5 -2 -12 3 -15 5 -3 9 1 9 9 0 17 -3 19 -12 6z"/>
<path d="M1606 1712 c-3 -5 1 -9 9 -9 8 0 12 4 9 9 -3 4 -7 8 -9 8 -2 0 -6 -4
-9 -8z"/>
<path d="M2156 782 c-3 -5 1 -9 9 -9 8 0 12 4 9 9 -3 4 -7 8 -9 8 -2 0 -6 -4
-9 -8z"/>
<path d="M1829 308 c-7 -23 -4 -35 7 -35 9 0 11 4 4 12 -5 7 -7 15 -3 18 3 4
3 7 0 7 -4 0 -7 -1 -8 -2z"/>
<path d="M1715 210 c-3 -6 1 -7 9 -4 18 7 21 14 7 14 -6 0 -13 -4 -16 -10z"/>
<path d="M1456 142 c-3 -4 4 -9 15 -9 23 -2 25 3 4 10 -8 4 -16 3 -19 -1z"/>
<path d="M1330 1591 c0 -54 3 -72 13 -68 7 2 12 24 13 57 l1 54 49 -2 c69 -4
184 -37 256 -73 242 -122 388 -351 388 -608 0 -116 -17 -189 -69 -296 -104
-212 -322 -364 -560 -391 -48 -5 -61 -4 -62 7 -1 8 -3 21 -4 29 -1 8 -3 30 -4
48 0 17 -6 32 -11 32 -7 0 -10 -27 -8 -72 l3 -72 59 3 c194 9 417 128 533 285
54 72 115 198 134 276 17 69 17 228 0 300 -19 82 -93 227 -148 291 -132 155
-315 251 -505 266 l-78 6 0 -72z"/>
<path d="M1315 1066 c-40 -18 -65 -47 -74 -88 -22 -98 72 -182 167 -148 l34
12 103 -102 c56 -56 105 -98 108 -93 3 5 -37 54 -88 109 -73 76 -93 104 -89
119 3 11 8 40 10 65 6 56 -21 105 -71 126 -42 17 -61 17 -100 0z m97 -38 c35
-29 67 -100 36 -82 -10 6 -10 4 0 -8 11 -14 9 -21 -15 -47 -29 -31 -60 -39
-105 -26 -27 7 -31 13 -29 45 0 10 -1 11 -5 2 -10 -22 -24 -2 -24 34 0 69 92
122 142 82z"/>
<path d="M5672 1398 l3 -53 55 0 54 0 8 40 c13 59 7 65 -62 65 l-61 0 3 -52z"/>
<path d="M4075 1427 c-87 -29 -130 -78 -160 -181 -14 -48 -16 -107 -13 -433 3
-366 4 -380 26 -435 27 -66 83 -122 139 -137 21 -6 70 -11 109 -11 59 0 81 5
125 28 47 24 58 36 89 96 l35 69 3 383 c3 327 1 393 -13 446 -32 125 -98 178
-229 185 -41 1 -88 -3 -111 -10z m125 -167 c35 -19 42 -100 38 -463 -3 -308
-5 -346 -21 -370 -25 -38 -79 -38 -104 0 -16 24 -18 60 -22 327 -4 356 2 455
31 491 21 26 47 32 78 15z"/>
<path d="M2657 1398 c-8 -49 -8 -988 -1 -1079 l7 -79 90 0 89 0 -3 304 c-2
167 -1 307 2 311 8 8 18 -16 132 -345 l92 -265 73 -3 72 -3 -2 593 -3 593 -85
0 -85 0 -1 -290 c-1 -323 -1 -316 -14 -294 -8 14 -170 465 -170 474 0 2 -9 29
-21 60 l-20 55 -74 0 -73 0 -5 -32z"/>
<path d="M3370 835 l0 -595 210 0 211 0 -3 83 -3 82 -105 3 c-68 2 -107 7
-112 15 -13 21 -10 325 4 333 13 8 22 9 131 12 l68 2 -3 78 -3 77 -95 3 c-60
2 -97 7 -102 15 -4 7 -8 76 -8 153 0 112 3 144 15 154 8 6 19 9 25 5 6 -4 49
-4 96 0 l85 7 -3 82 -3 81 -202 3 -203 2 0 -595z"/>
<path d="M4602 833 l3 -578 138 2 c162 2 205 16 249 84 44 68 50 137 46 539
-3 407 -5 419 -74 479 -47 42 -90 51 -237 51 l-127 0 2 -577z m258 467 c11 -6
28 -25 37 -43 16 -29 18 -72 21 -407 3 -345 2 -380 -15 -425 -22 -59 -47 -75
-119 -75 -38 0 -53 4 -58 16 -11 30 -7 914 5 936 10 18 18 20 60 15 27 -3 58
-11 69 -17z"/>
<path d="M5455 1230 c-22 -11 -51 -37 -65 -58 l-25 -37 -3 53 -3 52 -60 0 -59
0 2 -492 3 -493 45 -1 c25 -1 51 1 58 4 9 3 12 93 12 404 l0 400 33 32 c20 21
51 38 85 46 l52 14 0 48 c0 56 -11 60 -75 28z"/>
<path d="M6625 1235 c-54 -19 -91 -63 -112 -132 -16 -50 -18 -99 -18 -363 0
-269 2 -311 18 -360 33 -98 84 -133 192 -133 144 0 191 61 202 260 l6 103 -61
0 -60 0 -4 -111 c-3 -107 -4 -112 -31 -135 -36 -30 -68 -30 -104 0 l-28 24 -3
181 -3 181 145 0 146 0 0 148 c0 183 -15 253 -64 299 -55 51 -141 66 -221 38z
m147 -125 c14 -28 18 -61 18 -157 l0 -123 -84 0 -83 0 -6 33 c-3 18 -2 80 3
136 7 87 11 106 31 127 19 20 31 24 64 22 35 -3 42 -8 57 -38z"/>
<path d="M5675 1228 c-3 -7 -4 -229 -3 -493 l3 -480 52 0 c29 1 55 3 58 7 7 6
13 810 7 911 l-4 67 -54 0 c-35 0 -56 -5 -59 -12z"/>
<path d="M5940 1228 c0 -44 135 -955 143 -966 10 -13 125 -9 138 5 4 5 12 44
18 88 6 44 35 251 66 459 30 209 55 390 55 403 0 21 -4 23 -50 23 -32 0 -52
-5 -55 -12 -5 -18 -64 -540 -74 -666 -4 -56 -11 -105 -15 -109 -15 -16 -24 21
-40 162 -25 233 -73 602 -81 614 -9 15 -105 14 -105 -1z"/>
</g>
</svg>
